<svg xmlns="http://www.w3.org/2000/svg" width="600" height="800" viewBox="0 0 600 800">
  
  
  <g fill="none" stroke="#0F1A1A" stroke-width="1.75" stroke-linecap="round" stroke-linejoin="round" opacity="1"><circle cx="300" cy="320" r="168.00000000000003"/></g><g fill="none" stroke="#0F766E" stroke-width="1.75" stroke-linecap="round" stroke-linejoin="round" opacity="0.7"><circle cx="300" cy="320" r="137.76000000000002"/></g><g fill="none" stroke="#0F1A1A" stroke-width="1.75" stroke-linecap="round" stroke-linejoin="round" opacity="1"><g transform="translate(300 320)"><path d="M0 4 Q-4.8 0 -10.3 -12.3 Q4.8 0 0 4 Z"/><path d="M0 4 Q-5.7 0 -5.2 -18.3 Q5.7 0 0 4 Z"/><path d="M0 4 Q-6.3 0 0.0 -21.0 Q6.3 0 0 4 Z"/><path d="M0 4 Q-5.7 0 5.2 -18.3 Q5.7 0 0 4 Z"/><path d="M0 4 Q-4.8 0 10.3 -12.3 Q4.8 0 0 4 Z"/><path d="M-14 4 Q0 10 14 4"/></g></g><text x="300" y="528" text-anchor="middle" font-family="Arial, sans-serif" font-size="18" font-weight="700" fill="#0F1A1A">Make in India</text><text x="300" y="566" text-anchor="middle" font-family="Arial, sans-serif" font-size="12" font-weight="600" fill="#5B5F68" letter-spacing="0.3">DPIIT, Govt. of India</text>
  
</svg>