<svg xmlns="http://www.w3.org/2000/svg" width="600" height="800" viewBox="0 0 600 800">
  
  
  <g fill="none" stroke="#0F1A1A" stroke-width="1.75" stroke-linecap="round" stroke-linejoin="round" opacity="1"><circle cx="300" cy="320" r="168.00000000000003"/></g><g fill="none" stroke="#0F766E" stroke-width="1.75" stroke-linecap="round" stroke-linejoin="round" opacity="0.7"><circle cx="300" cy="320" r="137.76000000000002"/></g><g fill="none" stroke="#0F1A1A" stroke-width="1.75" stroke-linecap="round" stroke-linejoin="round" opacity="1"><g transform="translate(300 320)"><path d="M7.8 0.0 L13.0 0.0 L12.0 5.0 L5.5 5.5 L5.5 5.5 L9.2 9.2 L5.0 12.0 L0.0 7.8 L0.0 7.8 L0.0 13.0 L-5.0 12.0 L-5.5 5.5 L-5.5 5.5 L-9.2 9.2 L-12.0 5.0 L-7.8 0.0 L-7.8 0.0 L-13.0 0.0 L-12.0 -5.0 L-5.5 -5.5 L-5.5 -5.5 L-9.2 -9.2 L-5.0 -12.0 L-0.0 -7.8 L-0.0 -7.8 L-0.0 -13.0 L5.0 -12.0 L5.5 -5.5 L5.5 -5.5 L9.2 -9.2 L12.0 -5.0 L7.8 -0.0 Z"/><circle cx="0" cy="0" r="4.2"/></g></g><text x="300" y="528" text-anchor="middle" font-family="Arial, sans-serif" font-size="18" font-weight="700" fill="#0F1A1A">MSME / Udyam</text><text x="300" y="550" text-anchor="middle" font-family="Arial, sans-serif" font-size="18" font-weight="700" fill="#0F1A1A">Registered</text><text x="300" y="588" text-anchor="middle" font-family="Arial, sans-serif" font-size="12" font-weight="600" fill="#5B5F68" letter-spacing="0.3">Ministry of MSME</text>
  
</svg>