<svg xmlns="http://www.w3.org/2000/svg" width="600" height="800" viewBox="0 0 600 800">
  <rect width="600" height="800" fill="#FFF1EA"/>
  <circle cx="492.0" cy="320.0" r="38.4" fill="#0F766E"/><circle cx="473.0" cy="403.3" r="38.4" fill="#0F766E"/><circle cx="419.7" cy="470.1" r="38.4" fill="#0F766E"/><circle cx="342.7" cy="507.2" r="38.4" fill="#0F766E"/><circle cx="257.3" cy="507.2" r="38.4" fill="#0F766E"/><circle cx="180.3" cy="470.1" r="38.4" fill="#0F766E"/><circle cx="127.0" cy="403.3" r="38.4" fill="#0F766E"/><circle cx="108.0" cy="320.0" r="38.4" fill="#0F766E"/><circle cx="127.0" cy="236.7" r="38.4" fill="#0F766E"/><circle cx="180.3" cy="169.9" r="38.4" fill="#0F766E"/><circle cx="257.3" cy="132.8" r="38.4" fill="#0F766E"/><circle cx="342.7" cy="132.8" r="38.4" fill="#0F766E"/><circle cx="419.7" cy="169.9" r="38.4" fill="#0F766E"/><circle cx="473.0" cy="236.7" r="38.4" fill="#0F766E"/><circle cx="300" cy="320" r="153.60000000000002" fill="#0F1A1A"/><circle cx="300" cy="320" r="143.60000000000002" fill="none" stroke="#FFFFFF" stroke-width="2" stroke-dasharray="4 5" opacity="0.5"/><g transform="translate(300 255.488) scale(1.15)"><polygon points="0.0,-18.0 4.7,-6.5 17.1,-5.6 7.6,2.5 10.6,14.6 0.0,8.0 -10.6,14.6 -7.6,2.5 -17.1,-5.6 -4.7,-6.5" fill="#FFFFFF"/></g><text x="300" y="345.432" text-anchor="middle" font-family="Arial, sans-serif" font-size="17" font-weight="700" fill="#FFFFFF">Startup India</text><text x="300" y="379.432" text-anchor="middle" font-family="Arial, sans-serif" font-size="10.5" font-weight="600" fill="#FFFFFF" opacity="0.62" letter-spacing="0.4">DPIIT Recognised</text><path d="M262 430.592 L286 506.592 L300 474.592 L314 506.592 L338 430.592 Z" fill="#0F766E"/>
  
</svg>