<svg xmlns="http://www.w3.org/2000/svg" width="1920" height="1080" viewBox="0 0 1920 1080">
  <defs><radialGradient id="orb0" cx="50%" cy="50%" r="50%">
    <stop offset="0%" stop-color="#0F766E" stop-opacity="0.16"/>
    <stop offset="100%" stop-color="#0F766E" stop-opacity="0"/>
  </radialGradient><radialGradient id="orb1" cx="50%" cy="50%" r="50%">
    <stop offset="0%" stop-color="#5EEAD4" stop-opacity="0.14"/>
    <stop offset="100%" stop-color="#5EEAD4" stop-opacity="0"/>
  </radialGradient><radialGradient id="orb2" cx="50%" cy="50%" r="50%">
    <stop offset="0%" stop-color="#FFFFFF" stop-opacity="0.65"/>
    <stop offset="100%" stop-color="#FFFFFF" stop-opacity="0"/>
  </radialGradient></defs>
  
  
    <rect width="1920" height="1080" fill="#F6F8F9"/>
    <circle cx="115.19999999999999" cy="-54" r="614.4" fill="url(#orb0)"/><circle cx="1958.4" cy="237.6" r="537.6" fill="url(#orb1)"/><circle cx="768" cy="1166.4" r="652.8000000000001" fill="url(#orb2)"/>
    <g transform="translate(895.2 476.5) scale(1.550)" opacity="0.16">
      <g fill="none" stroke="#0F1A1A" stroke-width="1.75" stroke-linecap="round" stroke-linejoin="round" opacity="1">
    <rect x="90" y="172" width="250" height="52" rx="3"/>
    <path d="M104 200.6 L326 200.6" opacity="0.5"/>
    <rect x="170" y="156" width="90" height="14" rx="2" stroke-dasharray="4 4"/>
    <path d="M82 234 L348 234"/>
    <path d="M120 234 L120 250"/><path d="M215 234 L215 250"/><path d="M310 234 L310 250"/>
    <path d="M110 234 L110 76"/>
    <path d="M320 234 L320 76"/>
    <path d="M104 76 L326 76"/>
    <rect x="203" y="74" width="24" height="16" rx="3"/>
    <path d="M215 90 L215 178" />
    <rect x="366" y="142" width="46" height="94" rx="4"/>
    <rect x="374" y="154" width="30" height="24" rx="2"/>
    <path d="M374 198 L404 198"/>
    <path d="M374 208 L396 208"/>
  </g>
    </g>
  
  
</svg>