<svg xmlns="http://www.w3.org/2000/svg" width="2400" height="1600" viewBox="0 0 2400 1600">
  
  
  <g transform="translate(36.1 257.8) scale(4.4239)"><g><defs><radialGradient id="rg1304" cx="231" cy="254" r="157.2" gradientUnits="userSpaceOnUse"><stop offset="0" stop-color="#000000" stop-opacity="0.38"/><stop offset="60" stop-color="#000000" stop-opacity="0.171"/><stop offset="100" stop-color="#000000" stop-opacity="0"/></radialGradient></defs><ellipse cx="231" cy="254" rx="157.2" ry="15" fill="url(#rg1304)"/><defs><linearGradient id="lg1306" x1="0" y1="252" x2="0" y2="352" gradientUnits="userSpaceOnUse"><stop offset="0" stop-color="#ffffff" stop-opacity="0.14"/><stop offset="100" stop-color="#ffffff" stop-opacity="0"/></linearGradient>
    <mask id="rmask1305"><rect x="-4000" y="252" width="9000" height="100" fill="url(#lg1306)"/></mask>
  </defs>
  <g transform="translate(0 504) scale(1,-1)" mask="url(#rmask1305)"><defs><linearGradient id="lg1280" x1="100" y1="232.4" x2="441.4" y2="149.7" gradientUnits="userSpaceOnUse"><stop offset="0" stop-color="#2E3838" stop-opacity="1"/><stop offset="100" stop-color="#161E1E" stop-opacity="1"/></linearGradient><linearGradient id="lg1281" x1="0" y1="232.4" x2="0" y2="246" gradientUnits="userSpaceOnUse"><stop offset="0" stop-color="#161E1E" stop-opacity="1"/><stop offset="100" stop-color="#10161A" stop-opacity="1"/></linearGradient><linearGradient id="lg1282" x1="362" y1="0" x2="441.4" y2="0" gradientUnits="userSpaceOnUse"><stop offset="0" stop-color="#0C1212" stop-opacity="1"/><stop offset="100" stop-color="#050808" stop-opacity="1"/></linearGradient></defs>
    <polygon points="362,246 441.4,157.8 441.4,149.7 362,232.4" fill="url(#lg1282)"/>
    <polygon points="100,232.4 362,232.4 441.4,149.7 284.4,149.7" fill="url(#lg1280)"/>
    <polygon points="100,246 362,246 362,232.4 100,232.4" fill="url(#lg1281)"/>
    <path d="M362,246 441.4,157.8" stroke="#000000" stroke-width="0.8" opacity="0.5" fill="none"/>
    <path d="M362,232.4 441.4,149.7" stroke="#000000" stroke-width="0.8" opacity="0.4" fill="none"/>
    <path d="M100,232.4 362,232.4" stroke="#4A5858" stroke-width="1.3" opacity="0.85" stroke-linecap="round" fill="none"/>
    <path d="M100,232.4 100,246" stroke="#4A5858" stroke-width="1.1" opacity="0.55" stroke-linecap="round" fill="none"/><defs><linearGradient id="lg1283" x1="100" y1="110" x2="441.4" y2="76.3" gradientUnits="userSpaceOnUse"><stop offset="0" stop-color="#D7DBDE" stop-opacity="1"/><stop offset="100" stop-color="#C9CED2" stop-opacity="1"/></linearGradient><linearGradient id="lg1284" x1="0" y1="110" x2="0" y2="232.4" gradientUnits="userSpaceOnUse"><stop offset="0" stop-color="#A6ADB3" stop-opacity="1"/><stop offset="100" stop-color="#8C9499" stop-opacity="1"/></linearGradient><linearGradient id="lg1285" x1="362" y1="0" x2="441.4" y2="0" gradientUnits="userSpaceOnUse"><stop offset="0" stop-color="#8C9499" stop-opacity="1"/><stop offset="100" stop-color="#5B6266" stop-opacity="1"/></linearGradient></defs>
    <polygon points="362,232.4 441.4,149.7 441.4,76.3 362,110" fill="url(#lg1285)"/>
    <polygon points="100,110 362,110 441.4,76.3 284.4,76.3" fill="url(#lg1283)"/>
    <polygon points="100,232.4 362,232.4 362,110 100,110" fill="url(#lg1284)"/>
    <path d="M362,232.4 441.4,149.7" stroke="#3A4144" stroke-width="0.8" opacity="0.5" fill="none"/>
    <path d="M362,110 441.4,76.3" stroke="#3A4144" stroke-width="0.8" opacity="0.4" fill="none"/>
    <path d="M100,110 362,110" stroke="#F2F4F5" stroke-width="1.3" opacity="0.85" stroke-linecap="round" fill="none"/>
    <path d="M100,110 100,232.4" stroke="#F2F4F5" stroke-width="1.1" opacity="0.55" stroke-linecap="round" fill="none"/><defs><linearGradient id="lg1286" x1="112.1" y1="125.8" x2="338.1" y2="197" gradientUnits="userSpaceOnUse"><stop offset="0" stop-color="#DDEDEA" stop-opacity="0.5"/><stop offset="100" stop-color="#BFD7D4" stop-opacity="0.28"/></linearGradient></defs><polygon points="112.1,125.8 338.1,125.8 338.1,197 112.1,197" fill="url(#lg1286)"/><circle cx="126.4" cy="146.1" r="3.1" fill="none" stroke="#2E3A3A" stroke-width="0.6" opacity="0.5"/><circle cx="136.8" cy="146.1" r="3.1" fill="none" stroke="#2E3A3A" stroke-width="0.6" opacity="0.5"/><circle cx="147.1" cy="146.1" r="3.1" fill="none" stroke="#2E3A3A" stroke-width="0.6" opacity="0.5"/><circle cx="157.5" cy="146.1" r="3.1" fill="none" stroke="#2E3A3A" stroke-width="0.6" opacity="0.5"/><circle cx="167.9" cy="146.1" r="3.1" fill="none" stroke="#2E3A3A" stroke-width="0.6" opacity="0.5"/><circle cx="178.3" cy="146.1" r="3.1" fill="none" stroke="#2E3A3A" stroke-width="0.6" opacity="0.5"/><circle cx="188.7" cy="146.1" r="3.1" fill="none" stroke="#2E3A3A" stroke-width="0.6" opacity="0.5"/><circle cx="199" cy="146.1" r="3.1" fill="none" stroke="#2E3A3A" stroke-width="0.6" opacity="0.5"/><circle cx="131.6" cy="155.3" r="3.1" fill="none" stroke="#2E3A3A" stroke-width="0.6" opacity="0.5"/><circle cx="141.9" cy="155.3" r="3.1" fill="none" stroke="#2E3A3A" stroke-width="0.6" opacity="0.5"/><circle cx="152.3" cy="155.3" r="3.1" fill="none" stroke="#2E3A3A" stroke-width="0.6" opacity="0.5"/><circle cx="162.7" cy="155.3" r="3.1" fill="none" stroke="#2E3A3A" stroke-width="0.6" opacity="0.5"/><circle cx="173.1" cy="155.3" r="3.1" fill="none" stroke="#2E3A3A" stroke-width="0.6" opacity="0.5"/><circle cx="183.5" cy="155.3" r="3.1" fill="none" stroke="#2E3A3A" stroke-width="0.6" opacity="0.5"/><circle cx="193.9" cy="155.3" r="3.1" fill="none" stroke="#2E3A3A" stroke-width="0.6" opacity="0.5"/><circle cx="204.2" cy="155.3" r="3.1" fill="none" stroke="#2E3A3A" stroke-width="0.6" opacity="0.5"/><circle cx="126.4" cy="164.4" r="3.1" fill="none" stroke="#2E3A3A" stroke-width="0.6" opacity="0.5"/><circle cx="136.8" cy="164.4" r="3.1" fill="none" stroke="#2E3A3A" stroke-width="0.6" opacity="0.5"/><circle cx="147.1" cy="164.4" r="3.1" fill="none" stroke="#2E3A3A" stroke-width="0.6" opacity="0.5"/><circle cx="157.5" cy="164.4" r="3.1" fill="none" stroke="#2E3A3A" stroke-width="0.6" opacity="0.5"/><circle cx="167.9" cy="164.4" r="3.1" fill="none" stroke="#2E3A3A" stroke-width="0.6" opacity="0.5"/><circle cx="178.3" cy="164.4" r="3.1" fill="none" stroke="#2E3A3A" stroke-width="0.6" opacity="0.5"/><circle cx="188.7" cy="164.4" r="3.1" fill="none" stroke="#2E3A3A" stroke-width="0.6" opacity="0.5"/><circle cx="199" cy="164.4" r="3.1" fill="none" stroke="#2E3A3A" stroke-width="0.6" opacity="0.5"/><circle cx="131.6" cy="173.6" r="3.1" fill="none" stroke="#2E3A3A" stroke-width="0.6" opacity="0.5"/><circle cx="141.9" cy="173.6" r="3.1" fill="none" stroke="#2E3A3A" stroke-width="0.6" opacity="0.5"/><circle cx="152.3" cy="173.6" r="3.1" fill="none" stroke="#2E3A3A" stroke-width="0.6" opacity="0.5"/><circle cx="162.7" cy="173.6" r="3.1" fill="none" stroke="#2E3A3A" stroke-width="0.6" opacity="0.5"/><circle cx="173.1" cy="173.6" r="3.1" fill="none" stroke="#2E3A3A" stroke-width="0.6" opacity="0.5"/><circle cx="183.5" cy="173.6" r="3.1" fill="none" stroke="#2E3A3A" stroke-width="0.6" opacity="0.5"/><circle cx="193.9" cy="173.6" r="3.1" fill="none" stroke="#2E3A3A" stroke-width="0.6" opacity="0.5"/><circle cx="204.2" cy="173.6" r="3.1" fill="none" stroke="#2E3A3A" stroke-width="0.6" opacity="0.5"/><defs><linearGradient id="lg1290" x1="122.1" y1="137.2" x2="122.1" y2="132.8" gradientUnits="userSpaceOnUse"><stop offset="0" stop-color="#8C9499" stop-opacity="1"/><stop offset="32" stop-color="#C9CED2" stop-opacity="1"/><stop offset="55" stop-color="#C9CED2" stop-opacity="1"/><stop offset="100" stop-color="#A6ADB3" stop-opacity="1"/></linearGradient></defs>
    <circle cx="122.1" cy="135" r="2.2" fill="url(#lg1290)"/>
    <polygon points="122.1,137.2 334,137.2 334,132.8 122.1,132.8" fill="url(#lg1290)"/>
    <circle cx="334" cy="135" r="2.2" fill="url(#lg1290)"/><defs><linearGradient id="lg1291" x1="204.6" y1="153.1" x2="215.8" y2="153.1" gradientUnits="userSpaceOnUse"><stop offset="0" stop-color="#8C9499" stop-opacity="1"/><stop offset="45" stop-color="#C9CED2" stop-opacity="1"/><stop offset="100" stop-color="#A6ADB3" stop-opacity="1"/></linearGradient><linearGradient id="lg1292" x1="203.9" y1="153.1" x2="216.5" y2="153.1" gradientUnits="userSpaceOnUse"><stop offset="0" stop-color="#0C1212" stop-opacity="1"/><stop offset="50" stop-color="#3A4444" stop-opacity="1"/><stop offset="100" stop-color="#0C1212" stop-opacity="1"/></linearGradient><linearGradient id="lg1293" x1="206.7" y1="153.1" x2="213.7" y2="153.1" gradientUnits="userSpaceOnUse"><stop offset="0" stop-color="#A6ADB3" stop-opacity="1"/><stop offset="50" stop-color="#EDEFF0" stop-opacity="1"/><stop offset="100" stop-color="#8C9499" stop-opacity="1"/></linearGradient></defs>
    <path d="M218.2 130.9 Q219.3 142 214.4 144.7" fill="none" stroke="#10161A" stroke-width="1.7" stroke-linecap="round" opacity="0.9"/>
       <path d="M218.2 130.9 Q219.3 142 214.4 144.7" fill="none" stroke="#3A4444" stroke-width="0.8" stroke-linecap="round" opacity="0.5"/>
    <rect x="204.6" y="139.1" width="11.2" height="8.4" rx="1.4" fill="url(#lg1291)"/>
    <rect x="203.9" y="146.8" width="12.6" height="4.9" rx="1" fill="url(#lg1292)"/>
    <line x1="204.6" y1="152.4" x2="204.6" y2="153.8" stroke="#0A1212" stroke-width="0.8" opacity="0.6"/><line x1="206" y1="152.4" x2="206" y2="153.8" stroke="#0A1212" stroke-width="0.8" opacity="0.6"/><line x1="207.4" y1="152.4" x2="207.4" y2="153.8" stroke="#0A1212" stroke-width="0.8" opacity="0.6"/><line x1="208.8" y1="152.4" x2="208.8" y2="153.8" stroke="#0A1212" stroke-width="0.8" opacity="0.6"/><line x1="210.2" y1="152.4" x2="210.2" y2="153.8" stroke="#0A1212" stroke-width="0.8" opacity="0.6"/><line x1="211.6" y1="152.4" x2="211.6" y2="153.8" stroke="#0A1212" stroke-width="0.8" opacity="0.6"/><line x1="213" y1="152.4" x2="213" y2="153.8" stroke="#0A1212" stroke-width="0.8" opacity="0.6"/><line x1="214.4" y1="152.4" x2="214.4" y2="153.8" stroke="#0A1212" stroke-width="0.8" opacity="0.6"/><line x1="215.8" y1="152.4" x2="215.8" y2="153.8" stroke="#0A1212" stroke-width="0.8" opacity="0.6"/>
    <circle cx="210.2" cy="152.4" r="4.6" fill="none" stroke="#2A9D93" stroke-width="1" opacity="0.85"/>
    <path d="M206.3 154.5 L208.8 162.2 L210.2 164.3 L211.6 162.2 L214 154.5 Z" fill="url(#lg1293)"/>
    <circle cx="210.2" cy="163.6" r="1" fill="#FFF4E2" opacity="0.95"/><defs><linearGradient id="lg1287" x1="78.6" y1="114.7" x2="441.5" y2="75.3" gradientUnits="userSpaceOnUse"><stop offset="0" stop-color="#2A9D93" stop-opacity="1"/><stop offset="100" stop-color="#14857C" stop-opacity="1"/></linearGradient><linearGradient id="lg1288" x1="0" y1="114.7" x2="0" y2="123.1" gradientUnits="userSpaceOnUse"><stop offset="0" stop-color="#0F766E" stop-opacity="1"/><stop offset="100" stop-color="#1B2626" stop-opacity="1"/></linearGradient><linearGradient id="lg1289" x1="346.7" y1="0" x2="441.5" y2="0" gradientUnits="userSpaceOnUse"><stop offset="0" stop-color="#0E3B37" stop-opacity="1"/><stop offset="100" stop-color="#0C1212" stop-opacity="1"/></linearGradient></defs>
    <polygon points="346.7,123.1 441.5,80 441.5,75.3 346.7,114.7" fill="url(#lg1289)"/>
    <polygon points="78.6,114.7 346.7,114.7 441.5,75.3 292.4,75.3" fill="url(#lg1287)"/>
    <polygon points="78.6,123.1 346.7,123.1 346.7,114.7 78.6,114.7" fill="url(#lg1288)"/>
    <path d="M346.7,123.1 441.5,80" stroke="#06100F" stroke-width="0.8" opacity="0.5" fill="none"/>
    <path d="M346.7,114.7 441.5,75.3" stroke="#06100F" stroke-width="0.8" opacity="0.4" fill="none"/>
    <path d="M78.6,114.7 346.7,114.7" stroke="#BFEDE7" stroke-width="1.3" opacity="0.85" stroke-linecap="round" fill="none"/>
    <path d="M78.6,114.7 78.6,123.1" stroke="#BFEDE7" stroke-width="1.1" opacity="0.55" stroke-linecap="round" fill="none"/><defs><radialGradient id="rg1300" cx="399.7" cy="235.5" r="5" gradientUnits="userSpaceOnUse"><stop offset="0" stop-color="#3A4444" stop-opacity="1"/><stop offset="70" stop-color="#10161A" stop-opacity="1"/><stop offset="100" stop-color="#000000" stop-opacity="1"/></radialGradient></defs>
      <ellipse cx="399.7" cy="238.4" rx="6.8" ry="2.5" fill="#000" opacity="0.22"/>
      <ellipse cx="399.7" cy="236.9" rx="4.5" ry="3.6" fill="url(#rg1300)"/><defs><radialGradient id="rg1301" cx="422" cy="235.5" r="5" gradientUnits="userSpaceOnUse"><stop offset="0" stop-color="#3A4444" stop-opacity="1"/><stop offset="70" stop-color="#10161A" stop-opacity="1"/><stop offset="100" stop-color="#000000" stop-opacity="1"/></radialGradient></defs>
      <ellipse cx="422" cy="238.4" rx="6.8" ry="2.5" fill="#000" opacity="0.22"/>
      <ellipse cx="422" cy="236.9" rx="4.5" ry="3.6" fill="url(#rg1301)"/><defs><linearGradient id="lg1294" x1="390.9" y1="228.3" x2="452.4" y2="194.5" gradientUnits="userSpaceOnUse"><stop offset="0" stop-color="#2E3838" stop-opacity="1"/><stop offset="100" stop-color="#161E1E" stop-opacity="1"/></linearGradient><linearGradient id="lg1295" x1="0" y1="228.3" x2="0" y2="235" gradientUnits="userSpaceOnUse"><stop offset="0" stop-color="#161E1E" stop-opacity="1"/><stop offset="100" stop-color="#10161A" stop-opacity="1"/></linearGradient><linearGradient id="lg1296" x1="430.8" y1="0" x2="452.4" y2="0" gradientUnits="userSpaceOnUse"><stop offset="0" stop-color="#0C1212" stop-opacity="1"/><stop offset="100" stop-color="#050808" stop-opacity="1"/></linearGradient></defs>
    <polygon points="430.8,235 452.4,200.1 452.4,194.5 430.8,228.3" fill="url(#lg1296)"/>
    <polygon points="390.9,228.3 430.8,228.3 452.4,194.5 419.2,194.5" fill="url(#lg1294)"/>
    <polygon points="390.9,235 430.8,235 430.8,228.3 390.9,228.3" fill="url(#lg1295)"/>
    <path d="M430.8,235 452.4,200.1" stroke="#000000" stroke-width="0.8" opacity="0.5" fill="none"/>
    <path d="M430.8,228.3 452.4,194.5" stroke="#000000" stroke-width="0.8" opacity="0.4" fill="none"/>
    <path d="M390.9,228.3 430.8,228.3" stroke="#4A5858" stroke-width="1.3" opacity="0.85" stroke-linecap="round" fill="none"/>
    <path d="M390.9,228.3 390.9,235" stroke="#4A5858" stroke-width="1.1" opacity="0.55" stroke-linecap="round" fill="none"/><defs><linearGradient id="lg1297" x1="390.9" y1="151.4" x2="452.4" y2="130.4" gradientUnits="userSpaceOnUse"><stop offset="0" stop-color="#2A9D93" stop-opacity="1"/><stop offset="100" stop-color="#14857C" stop-opacity="1"/></linearGradient><linearGradient id="lg1298" x1="0" y1="151.4" x2="0" y2="228.3" gradientUnits="userSpaceOnUse"><stop offset="0" stop-color="#0F766E" stop-opacity="1"/><stop offset="100" stop-color="#1B2626" stop-opacity="1"/></linearGradient><linearGradient id="lg1299" x1="430.8" y1="0" x2="452.4" y2="0" gradientUnits="userSpaceOnUse"><stop offset="0" stop-color="#0E3B37" stop-opacity="1"/><stop offset="100" stop-color="#0C1212" stop-opacity="1"/></linearGradient></defs>
    <polygon points="430.8,228.3 452.4,194.5 452.4,130.4 430.8,151.4" fill="url(#lg1299)"/>
    <polygon points="390.9,151.4 430.8,151.4 452.4,130.4 419.2,130.4" fill="url(#lg1297)"/>
    <polygon points="390.9,228.3 430.8,228.3 430.8,151.4 390.9,151.4" fill="url(#lg1298)"/>
    <path d="M430.8,228.3 452.4,194.5" stroke="#06100F" stroke-width="0.8" opacity="0.5" fill="none"/>
    <path d="M430.8,151.4 452.4,130.4" stroke="#06100F" stroke-width="0.8" opacity="0.4" fill="none"/>
    <path d="M390.9,151.4 430.8,151.4" stroke="#BFEDE7" stroke-width="1.3" opacity="0.85" stroke-linecap="round" fill="none"/>
    <path d="M390.9,151.4 390.9,228.3" stroke="#BFEDE7" stroke-width="1.1" opacity="0.55" stroke-linecap="round" fill="none"/>
    <rect x="398.5" y="187.9" width="26" height="21.1" fill="#0A1E1C"/>
    <polyline points="398.5,201.6 401.8,196.8 405,198.5 408.3,203.7 411.5,204.2 414.8,198.7 418,194.6 421.3,197.4 424.5,202.3" fill="none" stroke="#2A9D93" stroke-width="1" opacity="0.85"/>
    <circle cx="421.4" cy="191.7" r="1.5" fill="#FFB067" opacity="0.9"/>
    <rect x="392.1" y="223.1" width="21.8" height="7.9" rx="1.4" fill="#0B1414" opacity="0.88"/>
    <rect x="392.1" y="223.1" width="21.8" height="7.9" rx="1.4" fill="none" stroke="#3A4A4A" stroke-width="0.6"/>
    <text x="403" y="228.5" text-anchor="middle" font-family="Arial, sans-serif" font-size="4" font-weight="700" fill="#8FE0D6" letter-spacing="0.5">RA-C1390</text><rect x="194.3" y="232" width="60" height="12" rx="1.4" fill="#0B1414" opacity="0.88"/>
    <rect x="194.3" y="232" width="60" height="12" rx="1.4" fill="none" stroke="#3A4A4A" stroke-width="0.6"/>
    <text x="224.3" y="240.2" text-anchor="middle" font-family="Arial, sans-serif" font-size="6" font-weight="700" fill="#8FE0D6" letter-spacing="0.5">CO2 · 1390</text><defs><radialGradient id="rg1302" cx="124" cy="246.2" r="6.6" gradientUnits="userSpaceOnUse"><stop offset="0" stop-color="#3A4444" stop-opacity="1"/><stop offset="70" stop-color="#10161A" stop-opacity="1"/><stop offset="100" stop-color="#000000" stop-opacity="1"/></radialGradient></defs>
      <ellipse cx="124" cy="250.1" rx="9" ry="3.3" fill="#000" opacity="0.22"/>
      <ellipse cx="124" cy="248" rx="6" ry="4.8" fill="url(#rg1302)"/><defs><radialGradient id="rg1303" cx="338" cy="246.2" r="6.6" gradientUnits="userSpaceOnUse"><stop offset="0" stop-color="#3A4444" stop-opacity="1"/><stop offset="70" stop-color="#10161A" stop-opacity="1"/><stop offset="100" stop-color="#000000" stop-opacity="1"/></radialGradient></defs>
      <ellipse cx="338" cy="250.1" rx="9" ry="3.3" fill="#000" opacity="0.22"/>
      <ellipse cx="338" cy="248" rx="6" ry="4.8" fill="url(#rg1303)"/></g><defs><linearGradient id="lg1280" x1="100" y1="232.4" x2="441.4" y2="149.7" gradientUnits="userSpaceOnUse"><stop offset="0" stop-color="#2E3838" stop-opacity="1"/><stop offset="100" stop-color="#161E1E" stop-opacity="1"/></linearGradient><linearGradient id="lg1281" x1="0" y1="232.4" x2="0" y2="246" gradientUnits="userSpaceOnUse"><stop offset="0" stop-color="#161E1E" stop-opacity="1"/><stop offset="100" stop-color="#10161A" stop-opacity="1"/></linearGradient><linearGradient id="lg1282" x1="362" y1="0" x2="441.4" y2="0" gradientUnits="userSpaceOnUse"><stop offset="0" stop-color="#0C1212" stop-opacity="1"/><stop offset="100" stop-color="#050808" stop-opacity="1"/></linearGradient></defs>
    <polygon points="362,246 441.4,157.8 441.4,149.7 362,232.4" fill="url(#lg1282)"/>
    <polygon points="100,232.4 362,232.4 441.4,149.7 284.4,149.7" fill="url(#lg1280)"/>
    <polygon points="100,246 362,246 362,232.4 100,232.4" fill="url(#lg1281)"/>
    <path d="M362,246 441.4,157.8" stroke="#000000" stroke-width="0.8" opacity="0.5" fill="none"/>
    <path d="M362,232.4 441.4,149.7" stroke="#000000" stroke-width="0.8" opacity="0.4" fill="none"/>
    <path d="M100,232.4 362,232.4" stroke="#4A5858" stroke-width="1.3" opacity="0.85" stroke-linecap="round" fill="none"/>
    <path d="M100,232.4 100,246" stroke="#4A5858" stroke-width="1.1" opacity="0.55" stroke-linecap="round" fill="none"/><defs><linearGradient id="lg1283" x1="100" y1="110" x2="441.4" y2="76.3" gradientUnits="userSpaceOnUse"><stop offset="0" stop-color="#D7DBDE" stop-opacity="1"/><stop offset="100" stop-color="#C9CED2" stop-opacity="1"/></linearGradient><linearGradient id="lg1284" x1="0" y1="110" x2="0" y2="232.4" gradientUnits="userSpaceOnUse"><stop offset="0" stop-color="#A6ADB3" stop-opacity="1"/><stop offset="100" stop-color="#8C9499" stop-opacity="1"/></linearGradient><linearGradient id="lg1285" x1="362" y1="0" x2="441.4" y2="0" gradientUnits="userSpaceOnUse"><stop offset="0" stop-color="#8C9499" stop-opacity="1"/><stop offset="100" stop-color="#5B6266" stop-opacity="1"/></linearGradient></defs>
    <polygon points="362,232.4 441.4,149.7 441.4,76.3 362,110" fill="url(#lg1285)"/>
    <polygon points="100,110 362,110 441.4,76.3 284.4,76.3" fill="url(#lg1283)"/>
    <polygon points="100,232.4 362,232.4 362,110 100,110" fill="url(#lg1284)"/>
    <path d="M362,232.4 441.4,149.7" stroke="#3A4144" stroke-width="0.8" opacity="0.5" fill="none"/>
    <path d="M362,110 441.4,76.3" stroke="#3A4144" stroke-width="0.8" opacity="0.4" fill="none"/>
    <path d="M100,110 362,110" stroke="#F2F4F5" stroke-width="1.3" opacity="0.85" stroke-linecap="round" fill="none"/>
    <path d="M100,110 100,232.4" stroke="#F2F4F5" stroke-width="1.1" opacity="0.55" stroke-linecap="round" fill="none"/><defs><linearGradient id="lg1286" x1="112.1" y1="125.8" x2="338.1" y2="197" gradientUnits="userSpaceOnUse"><stop offset="0" stop-color="#DDEDEA" stop-opacity="0.5"/><stop offset="100" stop-color="#BFD7D4" stop-opacity="0.28"/></linearGradient></defs><polygon points="112.1,125.8 338.1,125.8 338.1,197 112.1,197" fill="url(#lg1286)"/><circle cx="126.4" cy="146.1" r="3.1" fill="none" stroke="#2E3A3A" stroke-width="0.6" opacity="0.5"/><circle cx="136.8" cy="146.1" r="3.1" fill="none" stroke="#2E3A3A" stroke-width="0.6" opacity="0.5"/><circle cx="147.1" cy="146.1" r="3.1" fill="none" stroke="#2E3A3A" stroke-width="0.6" opacity="0.5"/><circle cx="157.5" cy="146.1" r="3.1" fill="none" stroke="#2E3A3A" stroke-width="0.6" opacity="0.5"/><circle cx="167.9" cy="146.1" r="3.1" fill="none" stroke="#2E3A3A" stroke-width="0.6" opacity="0.5"/><circle cx="178.3" cy="146.1" r="3.1" fill="none" stroke="#2E3A3A" stroke-width="0.6" opacity="0.5"/><circle cx="188.7" cy="146.1" r="3.1" fill="none" stroke="#2E3A3A" stroke-width="0.6" opacity="0.5"/><circle cx="199" cy="146.1" r="3.1" fill="none" stroke="#2E3A3A" stroke-width="0.6" opacity="0.5"/><circle cx="131.6" cy="155.3" r="3.1" fill="none" stroke="#2E3A3A" stroke-width="0.6" opacity="0.5"/><circle cx="141.9" cy="155.3" r="3.1" fill="none" stroke="#2E3A3A" stroke-width="0.6" opacity="0.5"/><circle cx="152.3" cy="155.3" r="3.1" fill="none" stroke="#2E3A3A" stroke-width="0.6" opacity="0.5"/><circle cx="162.7" cy="155.3" r="3.1" fill="none" stroke="#2E3A3A" stroke-width="0.6" opacity="0.5"/><circle cx="173.1" cy="155.3" r="3.1" fill="none" stroke="#2E3A3A" stroke-width="0.6" opacity="0.5"/><circle cx="183.5" cy="155.3" r="3.1" fill="none" stroke="#2E3A3A" stroke-width="0.6" opacity="0.5"/><circle cx="193.9" cy="155.3" r="3.1" fill="none" stroke="#2E3A3A" stroke-width="0.6" opacity="0.5"/><circle cx="204.2" cy="155.3" r="3.1" fill="none" stroke="#2E3A3A" stroke-width="0.6" opacity="0.5"/><circle cx="126.4" cy="164.4" r="3.1" fill="none" stroke="#2E3A3A" stroke-width="0.6" opacity="0.5"/><circle cx="136.8" cy="164.4" r="3.1" fill="none" stroke="#2E3A3A" stroke-width="0.6" opacity="0.5"/><circle cx="147.1" cy="164.4" r="3.1" fill="none" stroke="#2E3A3A" stroke-width="0.6" opacity="0.5"/><circle cx="157.5" cy="164.4" r="3.1" fill="none" stroke="#2E3A3A" stroke-width="0.6" opacity="0.5"/><circle cx="167.9" cy="164.4" r="3.1" fill="none" stroke="#2E3A3A" stroke-width="0.6" opacity="0.5"/><circle cx="178.3" cy="164.4" r="3.1" fill="none" stroke="#2E3A3A" stroke-width="0.6" opacity="0.5"/><circle cx="188.7" cy="164.4" r="3.1" fill="none" stroke="#2E3A3A" stroke-width="0.6" opacity="0.5"/><circle cx="199" cy="164.4" r="3.1" fill="none" stroke="#2E3A3A" stroke-width="0.6" opacity="0.5"/><circle cx="131.6" cy="173.6" r="3.1" fill="none" stroke="#2E3A3A" stroke-width="0.6" opacity="0.5"/><circle cx="141.9" cy="173.6" r="3.1" fill="none" stroke="#2E3A3A" stroke-width="0.6" opacity="0.5"/><circle cx="152.3" cy="173.6" r="3.1" fill="none" stroke="#2E3A3A" stroke-width="0.6" opacity="0.5"/><circle cx="162.7" cy="173.6" r="3.1" fill="none" stroke="#2E3A3A" stroke-width="0.6" opacity="0.5"/><circle cx="173.1" cy="173.6" r="3.1" fill="none" stroke="#2E3A3A" stroke-width="0.6" opacity="0.5"/><circle cx="183.5" cy="173.6" r="3.1" fill="none" stroke="#2E3A3A" stroke-width="0.6" opacity="0.5"/><circle cx="193.9" cy="173.6" r="3.1" fill="none" stroke="#2E3A3A" stroke-width="0.6" opacity="0.5"/><circle cx="204.2" cy="173.6" r="3.1" fill="none" stroke="#2E3A3A" stroke-width="0.6" opacity="0.5"/><defs><linearGradient id="lg1290" x1="122.1" y1="137.2" x2="122.1" y2="132.8" gradientUnits="userSpaceOnUse"><stop offset="0" stop-color="#8C9499" stop-opacity="1"/><stop offset="32" stop-color="#C9CED2" stop-opacity="1"/><stop offset="55" stop-color="#C9CED2" stop-opacity="1"/><stop offset="100" stop-color="#A6ADB3" stop-opacity="1"/></linearGradient></defs>
    <circle cx="122.1" cy="135" r="2.2" fill="url(#lg1290)"/>
    <polygon points="122.1,137.2 334,137.2 334,132.8 122.1,132.8" fill="url(#lg1290)"/>
    <circle cx="334" cy="135" r="2.2" fill="url(#lg1290)"/><defs><linearGradient id="lg1291" x1="204.6" y1="153.1" x2="215.8" y2="153.1" gradientUnits="userSpaceOnUse"><stop offset="0" stop-color="#8C9499" stop-opacity="1"/><stop offset="45" stop-color="#C9CED2" stop-opacity="1"/><stop offset="100" stop-color="#A6ADB3" stop-opacity="1"/></linearGradient><linearGradient id="lg1292" x1="203.9" y1="153.1" x2="216.5" y2="153.1" gradientUnits="userSpaceOnUse"><stop offset="0" stop-color="#0C1212" stop-opacity="1"/><stop offset="50" stop-color="#3A4444" stop-opacity="1"/><stop offset="100" stop-color="#0C1212" stop-opacity="1"/></linearGradient><linearGradient id="lg1293" x1="206.7" y1="153.1" x2="213.7" y2="153.1" gradientUnits="userSpaceOnUse"><stop offset="0" stop-color="#A6ADB3" stop-opacity="1"/><stop offset="50" stop-color="#EDEFF0" stop-opacity="1"/><stop offset="100" stop-color="#8C9499" stop-opacity="1"/></linearGradient></defs>
    <path d="M218.2 130.9 Q219.3 142 214.4 144.7" fill="none" stroke="#10161A" stroke-width="1.7" stroke-linecap="round" opacity="0.9"/>
       <path d="M218.2 130.9 Q219.3 142 214.4 144.7" fill="none" stroke="#3A4444" stroke-width="0.8" stroke-linecap="round" opacity="0.5"/>
    <rect x="204.6" y="139.1" width="11.2" height="8.4" rx="1.4" fill="url(#lg1291)"/>
    <rect x="203.9" y="146.8" width="12.6" height="4.9" rx="1" fill="url(#lg1292)"/>
    <line x1="204.6" y1="152.4" x2="204.6" y2="153.8" stroke="#0A1212" stroke-width="0.8" opacity="0.6"/><line x1="206" y1="152.4" x2="206" y2="153.8" stroke="#0A1212" stroke-width="0.8" opacity="0.6"/><line x1="207.4" y1="152.4" x2="207.4" y2="153.8" stroke="#0A1212" stroke-width="0.8" opacity="0.6"/><line x1="208.8" y1="152.4" x2="208.8" y2="153.8" stroke="#0A1212" stroke-width="0.8" opacity="0.6"/><line x1="210.2" y1="152.4" x2="210.2" y2="153.8" stroke="#0A1212" stroke-width="0.8" opacity="0.6"/><line x1="211.6" y1="152.4" x2="211.6" y2="153.8" stroke="#0A1212" stroke-width="0.8" opacity="0.6"/><line x1="213" y1="152.4" x2="213" y2="153.8" stroke="#0A1212" stroke-width="0.8" opacity="0.6"/><line x1="214.4" y1="152.4" x2="214.4" y2="153.8" stroke="#0A1212" stroke-width="0.8" opacity="0.6"/><line x1="215.8" y1="152.4" x2="215.8" y2="153.8" stroke="#0A1212" stroke-width="0.8" opacity="0.6"/>
    <circle cx="210.2" cy="152.4" r="4.6" fill="none" stroke="#2A9D93" stroke-width="1" opacity="0.85"/>
    <path d="M206.3 154.5 L208.8 162.2 L210.2 164.3 L211.6 162.2 L214 154.5 Z" fill="url(#lg1293)"/>
    <circle cx="210.2" cy="163.6" r="1" fill="#FFF4E2" opacity="0.95"/><defs><linearGradient id="lg1287" x1="78.6" y1="114.7" x2="441.5" y2="75.3" gradientUnits="userSpaceOnUse"><stop offset="0" stop-color="#2A9D93" stop-opacity="1"/><stop offset="100" stop-color="#14857C" stop-opacity="1"/></linearGradient><linearGradient id="lg1288" x1="0" y1="114.7" x2="0" y2="123.1" gradientUnits="userSpaceOnUse"><stop offset="0" stop-color="#0F766E" stop-opacity="1"/><stop offset="100" stop-color="#1B2626" stop-opacity="1"/></linearGradient><linearGradient id="lg1289" x1="346.7" y1="0" x2="441.5" y2="0" gradientUnits="userSpaceOnUse"><stop offset="0" stop-color="#0E3B37" stop-opacity="1"/><stop offset="100" stop-color="#0C1212" stop-opacity="1"/></linearGradient></defs>
    <polygon points="346.7,123.1 441.5,80 441.5,75.3 346.7,114.7" fill="url(#lg1289)"/>
    <polygon points="78.6,114.7 346.7,114.7 441.5,75.3 292.4,75.3" fill="url(#lg1287)"/>
    <polygon points="78.6,123.1 346.7,123.1 346.7,114.7 78.6,114.7" fill="url(#lg1288)"/>
    <path d="M346.7,123.1 441.5,80" stroke="#06100F" stroke-width="0.8" opacity="0.5" fill="none"/>
    <path d="M346.7,114.7 441.5,75.3" stroke="#06100F" stroke-width="0.8" opacity="0.4" fill="none"/>
    <path d="M78.6,114.7 346.7,114.7" stroke="#BFEDE7" stroke-width="1.3" opacity="0.85" stroke-linecap="round" fill="none"/>
    <path d="M78.6,114.7 78.6,123.1" stroke="#BFEDE7" stroke-width="1.1" opacity="0.55" stroke-linecap="round" fill="none"/><defs><radialGradient id="rg1300" cx="399.7" cy="235.5" r="5" gradientUnits="userSpaceOnUse"><stop offset="0" stop-color="#3A4444" stop-opacity="1"/><stop offset="70" stop-color="#10161A" stop-opacity="1"/><stop offset="100" stop-color="#000000" stop-opacity="1"/></radialGradient></defs>
      <ellipse cx="399.7" cy="238.4" rx="6.8" ry="2.5" fill="#000" opacity="0.22"/>
      <ellipse cx="399.7" cy="236.9" rx="4.5" ry="3.6" fill="url(#rg1300)"/><defs><radialGradient id="rg1301" cx="422" cy="235.5" r="5" gradientUnits="userSpaceOnUse"><stop offset="0" stop-color="#3A4444" stop-opacity="1"/><stop offset="70" stop-color="#10161A" stop-opacity="1"/><stop offset="100" stop-color="#000000" stop-opacity="1"/></radialGradient></defs>
      <ellipse cx="422" cy="238.4" rx="6.8" ry="2.5" fill="#000" opacity="0.22"/>
      <ellipse cx="422" cy="236.9" rx="4.5" ry="3.6" fill="url(#rg1301)"/><defs><linearGradient id="lg1294" x1="390.9" y1="228.3" x2="452.4" y2="194.5" gradientUnits="userSpaceOnUse"><stop offset="0" stop-color="#2E3838" stop-opacity="1"/><stop offset="100" stop-color="#161E1E" stop-opacity="1"/></linearGradient><linearGradient id="lg1295" x1="0" y1="228.3" x2="0" y2="235" gradientUnits="userSpaceOnUse"><stop offset="0" stop-color="#161E1E" stop-opacity="1"/><stop offset="100" stop-color="#10161A" stop-opacity="1"/></linearGradient><linearGradient id="lg1296" x1="430.8" y1="0" x2="452.4" y2="0" gradientUnits="userSpaceOnUse"><stop offset="0" stop-color="#0C1212" stop-opacity="1"/><stop offset="100" stop-color="#050808" stop-opacity="1"/></linearGradient></defs>
    <polygon points="430.8,235 452.4,200.1 452.4,194.5 430.8,228.3" fill="url(#lg1296)"/>
    <polygon points="390.9,228.3 430.8,228.3 452.4,194.5 419.2,194.5" fill="url(#lg1294)"/>
    <polygon points="390.9,235 430.8,235 430.8,228.3 390.9,228.3" fill="url(#lg1295)"/>
    <path d="M430.8,235 452.4,200.1" stroke="#000000" stroke-width="0.8" opacity="0.5" fill="none"/>
    <path d="M430.8,228.3 452.4,194.5" stroke="#000000" stroke-width="0.8" opacity="0.4" fill="none"/>
    <path d="M390.9,228.3 430.8,228.3" stroke="#4A5858" stroke-width="1.3" opacity="0.85" stroke-linecap="round" fill="none"/>
    <path d="M390.9,228.3 390.9,235" stroke="#4A5858" stroke-width="1.1" opacity="0.55" stroke-linecap="round" fill="none"/><defs><linearGradient id="lg1297" x1="390.9" y1="151.4" x2="452.4" y2="130.4" gradientUnits="userSpaceOnUse"><stop offset="0" stop-color="#2A9D93" stop-opacity="1"/><stop offset="100" stop-color="#14857C" stop-opacity="1"/></linearGradient><linearGradient id="lg1298" x1="0" y1="151.4" x2="0" y2="228.3" gradientUnits="userSpaceOnUse"><stop offset="0" stop-color="#0F766E" stop-opacity="1"/><stop offset="100" stop-color="#1B2626" stop-opacity="1"/></linearGradient><linearGradient id="lg1299" x1="430.8" y1="0" x2="452.4" y2="0" gradientUnits="userSpaceOnUse"><stop offset="0" stop-color="#0E3B37" stop-opacity="1"/><stop offset="100" stop-color="#0C1212" stop-opacity="1"/></linearGradient></defs>
    <polygon points="430.8,228.3 452.4,194.5 452.4,130.4 430.8,151.4" fill="url(#lg1299)"/>
    <polygon points="390.9,151.4 430.8,151.4 452.4,130.4 419.2,130.4" fill="url(#lg1297)"/>
    <polygon points="390.9,228.3 430.8,228.3 430.8,151.4 390.9,151.4" fill="url(#lg1298)"/>
    <path d="M430.8,228.3 452.4,194.5" stroke="#06100F" stroke-width="0.8" opacity="0.5" fill="none"/>
    <path d="M430.8,151.4 452.4,130.4" stroke="#06100F" stroke-width="0.8" opacity="0.4" fill="none"/>
    <path d="M390.9,151.4 430.8,151.4" stroke="#BFEDE7" stroke-width="1.3" opacity="0.85" stroke-linecap="round" fill="none"/>
    <path d="M390.9,151.4 390.9,228.3" stroke="#BFEDE7" stroke-width="1.1" opacity="0.55" stroke-linecap="round" fill="none"/>
    <rect x="398.5" y="187.9" width="26" height="21.1" fill="#0A1E1C"/>
    <polyline points="398.5,201.6 401.8,196.8 405,198.5 408.3,203.7 411.5,204.2 414.8,198.7 418,194.6 421.3,197.4 424.5,202.3" fill="none" stroke="#2A9D93" stroke-width="1" opacity="0.85"/>
    <circle cx="421.4" cy="191.7" r="1.5" fill="#FFB067" opacity="0.9"/>
    <rect x="392.1" y="223.1" width="21.8" height="7.9" rx="1.4" fill="#0B1414" opacity="0.88"/>
    <rect x="392.1" y="223.1" width="21.8" height="7.9" rx="1.4" fill="none" stroke="#3A4A4A" stroke-width="0.6"/>
    <text x="403" y="228.5" text-anchor="middle" font-family="Arial, sans-serif" font-size="4" font-weight="700" fill="#8FE0D6" letter-spacing="0.5">RA-C1390</text><rect x="194.3" y="232" width="60" height="12" rx="1.4" fill="#0B1414" opacity="0.88"/>
    <rect x="194.3" y="232" width="60" height="12" rx="1.4" fill="none" stroke="#3A4A4A" stroke-width="0.6"/>
    <text x="224.3" y="240.2" text-anchor="middle" font-family="Arial, sans-serif" font-size="6" font-weight="700" fill="#8FE0D6" letter-spacing="0.5">CO2 · 1390</text><defs><radialGradient id="rg1302" cx="124" cy="246.2" r="6.6" gradientUnits="userSpaceOnUse"><stop offset="0" stop-color="#3A4444" stop-opacity="1"/><stop offset="70" stop-color="#10161A" stop-opacity="1"/><stop offset="100" stop-color="#000000" stop-opacity="1"/></radialGradient></defs>
      <ellipse cx="124" cy="250.1" rx="9" ry="3.3" fill="#000" opacity="0.22"/>
      <ellipse cx="124" cy="248" rx="6" ry="4.8" fill="url(#rg1302)"/><defs><radialGradient id="rg1303" cx="338" cy="246.2" r="6.6" gradientUnits="userSpaceOnUse"><stop offset="0" stop-color="#3A4444" stop-opacity="1"/><stop offset="70" stop-color="#10161A" stop-opacity="1"/><stop offset="100" stop-color="#000000" stop-opacity="1"/></radialGradient></defs>
      <ellipse cx="338" cy="250.1" rx="9" ry="3.3" fill="#000" opacity="0.22"/>
      <ellipse cx="338" cy="248" rx="6" ry="4.8" fill="url(#rg1303)"/></g></g>
  <text x="24" y="1578" font-family="Arial, sans-serif" font-size="36" font-weight="600" fill="#0F1A1A" opacity="0.4">CO2 Laser Machines</text>
</svg>