<svg xmlns="http://www.w3.org/2000/svg" width="1200" height="900" viewBox="0 0 1200 900">
  <rect width="1200" height="900" fill="#E8EEF5"/>
  <g transform="translate(160 250) scale(2.1)"><svg x="0" y="0" width="440" height="280" viewBox="90 10 220 220" preserveAspectRatio="xMidYMid slice"><g><rect x="20" y="200" width="400" height="16" rx="4" fill="#111214"/><rect x="50" y="216" width="16" height="46" fill="#111214"/><rect x="374" y="216" width="16" height="46" fill="#111214"/><rect x="40" y="150" width="360" height="46" rx="4" fill="#1F4E79"/><rect x="60" y="160" width="200" height="26" rx="2" fill="#FFFFFF" stroke="#111214" stroke-width="2" stroke-dasharray="6 5"/><rect x="30" y="30" width="380" height="20" rx="4" fill="#1F4E79"/><rect x="30" y="40" width="18" height="150" rx="4" fill="#111214"/><rect x="392" y="40" width="18" height="150" rx="4" fill="#111214"/><rect x="150" y="50" width="28" height="60" rx="3" fill="#111214"/><line x1="164" y1="110" x2="164" y2="160" stroke="#F26A21" stroke-width="3" stroke-dasharray="3 4"/></g></svg></g>
  <text x="24" y="878" font-family="Arial, sans-serif" font-size="20" font-weight="600" fill="#111214" opacity="0.5">RA-F1530 Fiber Laser Cutting Machine — detail view</text>
</svg>