<svg xmlns="http://www.w3.org/2000/svg" width="2400" height="1800" viewBox="0 0 2400 1800">
  
  
  <g transform="translate(-181.0 177.0) scale(5.5075)"><g><defs><radialGradient id="rg24" cx="245.9" cy="256" r="117.8" gradientUnits="userSpaceOnUse"><stop offset="0" stop-color="#000000" stop-opacity="0.4"/><stop offset="60" stop-color="#000000" stop-opacity="0.18000000000000002"/><stop offset="100" stop-color="#000000" stop-opacity="0"/></radialGradient></defs><ellipse cx="245.9" cy="256" rx="117.8" ry="16" fill="url(#rg24)"/><defs><linearGradient id="lg26" x1="0" y1="252" x2="0" y2="372" gradientUnits="userSpaceOnUse"><stop offset="0" stop-color="#ffffff" stop-opacity="0.16"/><stop offset="100" stop-color="#ffffff" stop-opacity="0"/></linearGradient>
    <mask id="rmask25"><rect x="-4000" y="252" width="9000" height="120" fill="url(#lg26)"/></mask>
  </defs>
  <g transform="translate(0 504) scale(1,-1)" mask="url(#rmask25)"><defs><linearGradient id="lg0" x1="96" y1="216" x2="395.8" y2="139.9" gradientUnits="userSpaceOnUse"><stop offset="0" stop-color="#2A9D93" stop-opacity="1"/><stop offset="100" stop-color="#14857C" stop-opacity="1"/></linearGradient><linearGradient id="lg1" x1="0" y1="216" x2="0" y2="246" gradientUnits="userSpaceOnUse"><stop offset="0" stop-color="#0F766E" stop-opacity="1"/><stop offset="100" stop-color="#1B2626" stop-opacity="1"/></linearGradient><linearGradient id="lg2" x1="286" y1="0" x2="395.8" y2="0" gradientUnits="userSpaceOnUse"><stop offset="0" stop-color="#0E3B37" stop-opacity="1"/><stop offset="100" stop-color="#0C1212" stop-opacity="1"/></linearGradient></defs>
    <polygon points="286,246 395.8,157.8 395.8,139.9 286,216" fill="url(#lg2)"/>
    <polygon points="96,216 286,216 395.8,139.9 282,139.9" fill="url(#lg0)"/>
    <polygon points="96,246 286,246 286,216 96,216" fill="url(#lg1)"/>
    <path d="M286,246 395.8,157.8" stroke="#06100F" stroke-width="0.8" opacity="0.5" fill="none"/>
    <path d="M286,216 395.8,139.9" stroke="#06100F" stroke-width="0.8" opacity="0.4" fill="none"/>
    <path d="M96,216 286,216" stroke="#BFEDE7" stroke-width="1.3" opacity="0.85" stroke-linecap="round" fill="none"/>
    <path d="M96,216 96,246" stroke="#BFEDE7" stroke-width="1.1" opacity="0.55" stroke-linecap="round" fill="none"/><defs><linearGradient id="lg3" x1="139" y1="163.9" x2="382.9" y2="120.9" gradientUnits="userSpaceOnUse"><stop offset="0" stop-color="#C9CED2" stop-opacity="1"/><stop offset="100" stop-color="#A6ADB3" stop-opacity="1"/></linearGradient><linearGradient id="lg4" x1="0" y1="163.9" x2="0" y2="200.6" gradientUnits="userSpaceOnUse"><stop offset="0" stop-color="#2E3A3A" stop-opacity="1"/><stop offset="100" stop-color="#0C1212" stop-opacity="1"/></linearGradient><linearGradient id="lg5" x1="302.6" y1="0" x2="382.9" y2="0" gradientUnits="userSpaceOnUse"><stop offset="0" stop-color="#0E3B37" stop-opacity="1"/><stop offset="100" stop-color="#0C1212" stop-opacity="1"/></linearGradient></defs>
    <polygon points="302.6,200.6 382.9,146.2 382.9,120.9 302.6,163.9" fill="url(#lg5)"/>
    <polygon points="139,163.9 302.6,163.9 382.9,120.9 270.3,120.9" fill="url(#lg3)"/>
    <polygon points="139,200.6 302.6,200.6 302.6,163.9 139,163.9" fill="url(#lg4)"/>
    <path d="M302.6,200.6 382.9,146.2" stroke="#06100F" stroke-width="0.8" opacity="0.5" fill="none"/>
    <path d="M302.6,163.9 382.9,120.9" stroke="#06100F" stroke-width="0.8" opacity="0.4" fill="none"/>
    <path d="M139,163.9 302.6,163.9" stroke="#BFEDE7" stroke-width="1.3" opacity="0.85" stroke-linecap="round" fill="none"/>
    <path d="M139,163.9 139,200.6" stroke="#BFEDE7" stroke-width="1.1" opacity="0.55" stroke-linecap="round" fill="none"/><defs><linearGradient id="lg6" x1="139" y1="163.9" x2="382.9" y2="120.9" gradientUnits="userSpaceOnUse"><stop offset="0" stop-color="#D7DBDE" stop-opacity="1"/><stop offset="55" stop-color="#C9CED2" stop-opacity="1"/><stop offset="100" stop-color="#A6ADB3" stop-opacity="1"/></linearGradient></defs>
    <polygon points="139,163.9 302.6,163.9 382.9,120.9 270.3,120.9" fill="url(#lg6)" opacity="1"/>
    <ellipse cx="231.6" cy="146.7" rx="11.5" ry="6.3" fill="#141C1C" opacity="0.85"/>
    <ellipse cx="231.6" cy="146.7" rx="4" ry="2.3" fill="none" stroke="#3A4444" stroke-width="1" opacity="0.6"/>
    <line x1="241.4" y1="146.7" x2="244.8" y2="146.7" stroke="#3A4444" stroke-width="1.4" opacity="0.5"/><line x1="239.5" y1="149.8" x2="242.3" y2="150.9" stroke="#3A4444" stroke-width="1.4" opacity="0.5"/><line x1="234.6" y1="151.8" x2="235.7" y2="153.6" stroke="#3A4444" stroke-width="1.4" opacity="0.5"/><line x1="228.6" y1="151.8" x2="227.6" y2="153.6" stroke="#3A4444" stroke-width="1.4" opacity="0.5"/><line x1="223.8" y1="149.8" x2="221" y2="150.9" stroke="#3A4444" stroke-width="1.4" opacity="0.5"/><line x1="221.9" y1="146.7" x2="218.5" y2="146.7" stroke="#3A4444" stroke-width="1.4" opacity="0.5"/><line x1="223.8" y1="143.5" x2="221" y2="142.4" stroke="#3A4444" stroke-width="1.4" opacity="0.5"/><line x1="228.6" y1="141.6" x2="227.6" y2="139.8" stroke="#3A4444" stroke-width="1.4" opacity="0.5"/><line x1="234.6" y1="141.6" x2="235.7" y2="139.8" stroke="#3A4444" stroke-width="1.4" opacity="0.5"/><line x1="239.5" y1="143.5" x2="242.3" y2="142.4" stroke="#3A4444" stroke-width="1.4" opacity="0.5"/>
    <rect x="282.7" y="133.2" width="20.6" height="8" rx="2" fill="#141C1C" opacity="0.85"/>
    <ellipse cx="295.9" cy="150.1" rx="8" ry="4.4" fill="#141C1C" opacity="0.85"/>
    <ellipse cx="295.9" cy="150.1" rx="3.2" ry="1.7" fill="none" stroke="#3A4444" stroke-width="0.8" opacity="0.5"/><defs><linearGradient id="lg7" x1="204.6" y1="64.7" x2="236" y2="62.3" gradientUnits="userSpaceOnUse"><stop offset="0" stop-color="#2A9D93" stop-opacity="1"/><stop offset="100" stop-color="#14857C" stop-opacity="1"/></linearGradient><linearGradient id="lg8" x1="0" y1="64.7" x2="0" y2="148.4" gradientUnits="userSpaceOnUse"><stop offset="0" stop-color="#14857C" stop-opacity="1"/><stop offset="100" stop-color="#1B2626" stop-opacity="1"/></linearGradient><linearGradient id="lg9" x1="213.9" y1="0" x2="236" y2="0" gradientUnits="userSpaceOnUse"><stop offset="0" stop-color="#0E3B37" stop-opacity="1"/><stop offset="100" stop-color="#0C1212" stop-opacity="1"/></linearGradient></defs>
    <polygon points="213.9,148.4 236,140.6 236,62.3 213.9,64.7" fill="url(#lg9)"/>
    <polygon points="204.6,64.7 213.9,64.7 236,62.3 227.3,62.3" fill="url(#lg7)"/>
    <polygon points="204.6,148.4 213.9,148.4 213.9,64.7 204.6,64.7" fill="url(#lg8)"/>
    <path d="M213.9,148.4 236,140.6" stroke="#06100F" stroke-width="0.8" opacity="0.5" fill="none"/>
    <path d="M213.9,64.7 236,62.3" stroke="#06100F" stroke-width="0.8" opacity="0.4" fill="none"/>
    <path d="M204.6,64.7 213.9,64.7" stroke="#BFEDE7" stroke-width="1.3" opacity="0.85" stroke-linecap="round" fill="none"/>
    <path d="M204.6,64.7 204.6,148.4" stroke="#BFEDE7" stroke-width="1.1" opacity="0.55" stroke-linecap="round" fill="none"/><defs><linearGradient id="lg10" x1="334.2" y1="64.7" x2="357.3" y2="62.3" gradientUnits="userSpaceOnUse"><stop offset="0" stop-color="#2A9D93" stop-opacity="1"/><stop offset="100" stop-color="#14857C" stop-opacity="1"/></linearGradient><linearGradient id="lg11" x1="0" y1="64.7" x2="0" y2="148.4" gradientUnits="userSpaceOnUse"><stop offset="0" stop-color="#14857C" stop-opacity="1"/><stop offset="100" stop-color="#1B2626" stop-opacity="1"/></linearGradient><linearGradient id="lg12" x1="343.5" y1="0" x2="357.3" y2="0" gradientUnits="userSpaceOnUse"><stop offset="0" stop-color="#0E3B37" stop-opacity="1"/><stop offset="100" stop-color="#0C1212" stop-opacity="1"/></linearGradient></defs>
    <polygon points="343.5,148.4 357.3,140.6 357.3,62.3 343.5,64.7" fill="url(#lg12)"/>
    <polygon points="334.2,64.7 343.5,64.7 357.3,62.3 348.6,62.3" fill="url(#lg10)"/>
    <polygon points="334.2,148.4 343.5,148.4 343.5,64.7 334.2,64.7" fill="url(#lg11)"/>
    <path d="M343.5,148.4 357.3,140.6" stroke="#06100F" stroke-width="0.8" opacity="0.5" fill="none"/>
    <path d="M343.5,64.7 357.3,62.3" stroke="#06100F" stroke-width="0.8" opacity="0.4" fill="none"/>
    <path d="M334.2,64.7 343.5,64.7" stroke="#BFEDE7" stroke-width="1.3" opacity="0.85" stroke-linecap="round" fill="none"/>
    <path d="M334.2,64.7 334.2,148.4" stroke="#BFEDE7" stroke-width="1.1" opacity="0.55" stroke-linecap="round" fill="none"/><defs><linearGradient id="lg13" x1="204.6" y1="58.5" x2="357.3" y2="56.5" gradientUnits="userSpaceOnUse"><stop offset="0" stop-color="#2A9D93" stop-opacity="1"/><stop offset="100" stop-color="#14857C" stop-opacity="1"/></linearGradient><linearGradient id="lg14" x1="0" y1="58.5" x2="0" y2="69.4" gradientUnits="userSpaceOnUse"><stop offset="0" stop-color="#0F766E" stop-opacity="1"/><stop offset="100" stop-color="#1B2626" stop-opacity="1"/></linearGradient><linearGradient id="lg15" x1="343.5" y1="0" x2="357.3" y2="0" gradientUnits="userSpaceOnUse"><stop offset="0" stop-color="#0E3B37" stop-opacity="1"/><stop offset="100" stop-color="#0C1212" stop-opacity="1"/></linearGradient></defs>
    <polygon points="343.5,69.4 357.3,66.6 357.3,56.5 343.5,58.5" fill="url(#lg15)"/>
    <polygon points="204.6,58.5 343.5,58.5 357.3,56.5 227.3,56.5" fill="url(#lg13)"/>
    <polygon points="204.6,69.4 343.5,69.4 343.5,58.5 204.6,58.5" fill="url(#lg14)"/>
    <path d="M343.5,69.4 357.3,66.6" stroke="#06100F" stroke-width="0.8" opacity="0.5" fill="none"/>
    <path d="M343.5,58.5 357.3,56.5" stroke="#06100F" stroke-width="0.8" opacity="0.4" fill="none"/>
    <path d="M204.6,58.5 343.5,58.5" stroke="#BFEDE7" stroke-width="1.3" opacity="0.85" stroke-linecap="round" fill="none"/>
    <path d="M204.6,58.5 204.6,69.4" stroke="#BFEDE7" stroke-width="1.1" opacity="0.55" stroke-linecap="round" fill="none"/><rect x="205.3" y="67.9" width="7" height="6" rx="1.5" fill="#1B2626" opacity="0.85"/><rect x="214.7" y="67.9" width="7" height="6" rx="1.5" fill="#1B2626" opacity="0.85"/><rect x="224.2" y="67.9" width="7" height="6" rx="1.5" fill="#1B2626" opacity="0.85"/><rect x="233.7" y="67.9" width="7" height="6" rx="1.5" fill="#1B2626" opacity="0.85"/><rect x="243.1" y="67.9" width="7" height="6" rx="1.5" fill="#1B2626" opacity="0.85"/><defs><linearGradient id="lg19" x1="257.9" y1="74" x2="264.3" y2="74" gradientUnits="userSpaceOnUse"><stop offset="0" stop-color="#8C9499" stop-opacity="1"/><stop offset="32" stop-color="#C9CED2" stop-opacity="1"/><stop offset="55" stop-color="#C9CED2" stop-opacity="1"/><stop offset="100" stop-color="#A6ADB3" stop-opacity="1"/></linearGradient></defs>
    <circle cx="261.1" cy="74" r="3.2" fill="url(#lg19)"/>
    <polygon points="257.9,74 257.9,146.9 264.3,146.9 264.3,74" fill="url(#lg19)"/>
    <circle cx="261.1" cy="146.9" r="3.2" fill="url(#lg19)"/><defs><linearGradient id="lg16" x1="248.5" y1="67.1" x2="276.9" y2="65" gradientUnits="userSpaceOnUse"><stop offset="0" stop-color="#C9CED2" stop-opacity="1"/><stop offset="100" stop-color="#A6ADB3" stop-opacity="1"/></linearGradient><linearGradient id="lg17" x1="0" y1="67.1" x2="0" y2="75.1" gradientUnits="userSpaceOnUse"><stop offset="0" stop-color="#A6ADB3" stop-opacity="1"/><stop offset="100" stop-color="#1B2626" stop-opacity="1"/></linearGradient><linearGradient id="lg18" x1="261.2" y1="0" x2="276.9" y2="0" gradientUnits="userSpaceOnUse"><stop offset="0" stop-color="#0E3B37" stop-opacity="1"/><stop offset="100" stop-color="#0C1212" stop-opacity="1"/></linearGradient></defs>
    <polygon points="261.2,75.1 276.9,72.5 276.9,65 261.2,67.1" fill="url(#lg18)"/>
    <polygon points="248.5,67.1 261.2,67.1 276.9,65 264.9,65" fill="url(#lg16)"/>
    <polygon points="248.5,75.1 261.2,75.1 261.2,67.1 248.5,67.1" fill="url(#lg17)"/>
    <path d="M261.2,75.1 276.9,72.5" stroke="#06100F" stroke-width="0.8" opacity="0.5" fill="none"/>
    <path d="M261.2,67.1 276.9,65" stroke="#06100F" stroke-width="0.8" opacity="0.4" fill="none"/>
    <path d="M248.5,67.1 261.2,67.1" stroke="#BFEDE7" stroke-width="1.3" opacity="0.85" stroke-linecap="round" fill="none"/>
    <path d="M248.5,67.1 248.5,75.1" stroke="#BFEDE7" stroke-width="1.1" opacity="0.55" stroke-linecap="round" fill="none"/><defs><linearGradient id="lg20" x1="252.7" y1="146.9" x2="269.5" y2="146.9" gradientUnits="userSpaceOnUse"><stop offset="0" stop-color="#8C9499" stop-opacity="1"/><stop offset="50" stop-color="#C9CED2" stop-opacity="1"/><stop offset="100" stop-color="#A6ADB3" stop-opacity="1"/></linearGradient></defs>
    <rect x="251.6" y="132.2" width="18.9" height="18.9" rx="3.2" fill="url(#lg20)"/>
    <circle cx="261.1" cy="144.8" r="6.8" fill="none" stroke="#2A9D93" stroke-width="1.5" opacity="0.8"/>
    <path d="M255.8 150 L261.1 160.5 L266.3 150 Z" fill="#0C1212"/><defs><linearGradient id="lg21" x1="328.2" y1="143.8" x2="405.5" y2="122.8" gradientUnits="userSpaceOnUse"><stop offset="0" stop-color="#2A9D93" stop-opacity="1"/><stop offset="100" stop-color="#14857C" stop-opacity="1"/></linearGradient><linearGradient id="lg22" x1="0" y1="143.8" x2="0" y2="235" gradientUnits="userSpaceOnUse"><stop offset="0" stop-color="#0F766E" stop-opacity="1"/><stop offset="100" stop-color="#1B2626" stop-opacity="1"/></linearGradient><linearGradient id="lg23" x1="371.9" y1="0" x2="405.5" y2="0" gradientUnits="userSpaceOnUse"><stop offset="0" stop-color="#0E3B37" stop-opacity="1"/><stop offset="100" stop-color="#0C1212" stop-opacity="1"/></linearGradient></defs>
    <polygon points="371.9,235 405.5,197.7 405.5,122.8 371.9,143.8" fill="url(#lg23)"/>
    <polygon points="328.2,143.8 371.9,143.8 405.5,122.8 369.6,122.8" fill="url(#lg21)"/>
    <polygon points="328.2,235 371.9,235 371.9,143.8 328.2,143.8" fill="url(#lg22)"/>
    <path d="M371.9,235 405.5,197.7" stroke="#06100F" stroke-width="0.8" opacity="0.5" fill="none"/>
    <path d="M371.9,143.8 405.5,122.8" stroke="#06100F" stroke-width="0.8" opacity="0.4" fill="none"/>
    <path d="M328.2,143.8 371.9,143.8" stroke="#BFEDE7" stroke-width="1.3" opacity="0.85" stroke-linecap="round" fill="none"/>
    <path d="M328.2,143.8 328.2,235" stroke="#BFEDE7" stroke-width="1.1" opacity="0.55" stroke-linecap="round" fill="none"/>
    <rect x="336.5" y="186.5" width="28.5" height="23" fill="#0A1E1C"/>
    <polyline points="336.5,201.5 340.1,196.1 343.7,198 347.2,203.6 350.8,204.2 354.4,198.2 357.9,193.8 361.5,196.8 365.1,202.2" fill="none" stroke="#2A9D93" stroke-width="1" opacity="0.85"/>
    <circle cx="361.6" cy="190.6" r="1.6" fill="#FFB067" opacity="0.9"/>
    <rect x="327" y="224.9" width="23.9" height="8.6" rx="1.4" fill="#0B1414" opacity="0.88"/>
    <rect x="327" y="224.9" width="23.9" height="8.6" rx="1.4" fill="none" stroke="#3A4A4A" stroke-width="0.6"/>
    <text x="339" y="230.8" text-anchor="middle" font-family="Arial, sans-serif" font-size="4.3" font-weight="700" fill="#8FE0D6" letter-spacing="0.5">RA-F1530</text></g><defs><linearGradient id="lg0" x1="96" y1="216" x2="395.8" y2="139.9" gradientUnits="userSpaceOnUse"><stop offset="0" stop-color="#2A9D93" stop-opacity="1"/><stop offset="100" stop-color="#14857C" stop-opacity="1"/></linearGradient><linearGradient id="lg1" x1="0" y1="216" x2="0" y2="246" gradientUnits="userSpaceOnUse"><stop offset="0" stop-color="#0F766E" stop-opacity="1"/><stop offset="100" stop-color="#1B2626" stop-opacity="1"/></linearGradient><linearGradient id="lg2" x1="286" y1="0" x2="395.8" y2="0" gradientUnits="userSpaceOnUse"><stop offset="0" stop-color="#0E3B37" stop-opacity="1"/><stop offset="100" stop-color="#0C1212" stop-opacity="1"/></linearGradient></defs>
    <polygon points="286,246 395.8,157.8 395.8,139.9 286,216" fill="url(#lg2)"/>
    <polygon points="96,216 286,216 395.8,139.9 282,139.9" fill="url(#lg0)"/>
    <polygon points="96,246 286,246 286,216 96,216" fill="url(#lg1)"/>
    <path d="M286,246 395.8,157.8" stroke="#06100F" stroke-width="0.8" opacity="0.5" fill="none"/>
    <path d="M286,216 395.8,139.9" stroke="#06100F" stroke-width="0.8" opacity="0.4" fill="none"/>
    <path d="M96,216 286,216" stroke="#BFEDE7" stroke-width="1.3" opacity="0.85" stroke-linecap="round" fill="none"/>
    <path d="M96,216 96,246" stroke="#BFEDE7" stroke-width="1.1" opacity="0.55" stroke-linecap="round" fill="none"/><defs><linearGradient id="lg3" x1="139" y1="163.9" x2="382.9" y2="120.9" gradientUnits="userSpaceOnUse"><stop offset="0" stop-color="#C9CED2" stop-opacity="1"/><stop offset="100" stop-color="#A6ADB3" stop-opacity="1"/></linearGradient><linearGradient id="lg4" x1="0" y1="163.9" x2="0" y2="200.6" gradientUnits="userSpaceOnUse"><stop offset="0" stop-color="#2E3A3A" stop-opacity="1"/><stop offset="100" stop-color="#0C1212" stop-opacity="1"/></linearGradient><linearGradient id="lg5" x1="302.6" y1="0" x2="382.9" y2="0" gradientUnits="userSpaceOnUse"><stop offset="0" stop-color="#0E3B37" stop-opacity="1"/><stop offset="100" stop-color="#0C1212" stop-opacity="1"/></linearGradient></defs>
    <polygon points="302.6,200.6 382.9,146.2 382.9,120.9 302.6,163.9" fill="url(#lg5)"/>
    <polygon points="139,163.9 302.6,163.9 382.9,120.9 270.3,120.9" fill="url(#lg3)"/>
    <polygon points="139,200.6 302.6,200.6 302.6,163.9 139,163.9" fill="url(#lg4)"/>
    <path d="M302.6,200.6 382.9,146.2" stroke="#06100F" stroke-width="0.8" opacity="0.5" fill="none"/>
    <path d="M302.6,163.9 382.9,120.9" stroke="#06100F" stroke-width="0.8" opacity="0.4" fill="none"/>
    <path d="M139,163.9 302.6,163.9" stroke="#BFEDE7" stroke-width="1.3" opacity="0.85" stroke-linecap="round" fill="none"/>
    <path d="M139,163.9 139,200.6" stroke="#BFEDE7" stroke-width="1.1" opacity="0.55" stroke-linecap="round" fill="none"/><defs><linearGradient id="lg6" x1="139" y1="163.9" x2="382.9" y2="120.9" gradientUnits="userSpaceOnUse"><stop offset="0" stop-color="#D7DBDE" stop-opacity="1"/><stop offset="55" stop-color="#C9CED2" stop-opacity="1"/><stop offset="100" stop-color="#A6ADB3" stop-opacity="1"/></linearGradient></defs>
    <polygon points="139,163.9 302.6,163.9 382.9,120.9 270.3,120.9" fill="url(#lg6)" opacity="1"/>
    <ellipse cx="231.6" cy="146.7" rx="11.5" ry="6.3" fill="#141C1C" opacity="0.85"/>
    <ellipse cx="231.6" cy="146.7" rx="4" ry="2.3" fill="none" stroke="#3A4444" stroke-width="1" opacity="0.6"/>
    <line x1="241.4" y1="146.7" x2="244.8" y2="146.7" stroke="#3A4444" stroke-width="1.4" opacity="0.5"/><line x1="239.5" y1="149.8" x2="242.3" y2="150.9" stroke="#3A4444" stroke-width="1.4" opacity="0.5"/><line x1="234.6" y1="151.8" x2="235.7" y2="153.6" stroke="#3A4444" stroke-width="1.4" opacity="0.5"/><line x1="228.6" y1="151.8" x2="227.6" y2="153.6" stroke="#3A4444" stroke-width="1.4" opacity="0.5"/><line x1="223.8" y1="149.8" x2="221" y2="150.9" stroke="#3A4444" stroke-width="1.4" opacity="0.5"/><line x1="221.9" y1="146.7" x2="218.5" y2="146.7" stroke="#3A4444" stroke-width="1.4" opacity="0.5"/><line x1="223.8" y1="143.5" x2="221" y2="142.4" stroke="#3A4444" stroke-width="1.4" opacity="0.5"/><line x1="228.6" y1="141.6" x2="227.6" y2="139.8" stroke="#3A4444" stroke-width="1.4" opacity="0.5"/><line x1="234.6" y1="141.6" x2="235.7" y2="139.8" stroke="#3A4444" stroke-width="1.4" opacity="0.5"/><line x1="239.5" y1="143.5" x2="242.3" y2="142.4" stroke="#3A4444" stroke-width="1.4" opacity="0.5"/>
    <rect x="282.7" y="133.2" width="20.6" height="8" rx="2" fill="#141C1C" opacity="0.85"/>
    <ellipse cx="295.9" cy="150.1" rx="8" ry="4.4" fill="#141C1C" opacity="0.85"/>
    <ellipse cx="295.9" cy="150.1" rx="3.2" ry="1.7" fill="none" stroke="#3A4444" stroke-width="0.8" opacity="0.5"/><defs><linearGradient id="lg7" x1="204.6" y1="64.7" x2="236" y2="62.3" gradientUnits="userSpaceOnUse"><stop offset="0" stop-color="#2A9D93" stop-opacity="1"/><stop offset="100" stop-color="#14857C" stop-opacity="1"/></linearGradient><linearGradient id="lg8" x1="0" y1="64.7" x2="0" y2="148.4" gradientUnits="userSpaceOnUse"><stop offset="0" stop-color="#14857C" stop-opacity="1"/><stop offset="100" stop-color="#1B2626" stop-opacity="1"/></linearGradient><linearGradient id="lg9" x1="213.9" y1="0" x2="236" y2="0" gradientUnits="userSpaceOnUse"><stop offset="0" stop-color="#0E3B37" stop-opacity="1"/><stop offset="100" stop-color="#0C1212" stop-opacity="1"/></linearGradient></defs>
    <polygon points="213.9,148.4 236,140.6 236,62.3 213.9,64.7" fill="url(#lg9)"/>
    <polygon points="204.6,64.7 213.9,64.7 236,62.3 227.3,62.3" fill="url(#lg7)"/>
    <polygon points="204.6,148.4 213.9,148.4 213.9,64.7 204.6,64.7" fill="url(#lg8)"/>
    <path d="M213.9,148.4 236,140.6" stroke="#06100F" stroke-width="0.8" opacity="0.5" fill="none"/>
    <path d="M213.9,64.7 236,62.3" stroke="#06100F" stroke-width="0.8" opacity="0.4" fill="none"/>
    <path d="M204.6,64.7 213.9,64.7" stroke="#BFEDE7" stroke-width="1.3" opacity="0.85" stroke-linecap="round" fill="none"/>
    <path d="M204.6,64.7 204.6,148.4" stroke="#BFEDE7" stroke-width="1.1" opacity="0.55" stroke-linecap="round" fill="none"/><defs><linearGradient id="lg10" x1="334.2" y1="64.7" x2="357.3" y2="62.3" gradientUnits="userSpaceOnUse"><stop offset="0" stop-color="#2A9D93" stop-opacity="1"/><stop offset="100" stop-color="#14857C" stop-opacity="1"/></linearGradient><linearGradient id="lg11" x1="0" y1="64.7" x2="0" y2="148.4" gradientUnits="userSpaceOnUse"><stop offset="0" stop-color="#14857C" stop-opacity="1"/><stop offset="100" stop-color="#1B2626" stop-opacity="1"/></linearGradient><linearGradient id="lg12" x1="343.5" y1="0" x2="357.3" y2="0" gradientUnits="userSpaceOnUse"><stop offset="0" stop-color="#0E3B37" stop-opacity="1"/><stop offset="100" stop-color="#0C1212" stop-opacity="1"/></linearGradient></defs>
    <polygon points="343.5,148.4 357.3,140.6 357.3,62.3 343.5,64.7" fill="url(#lg12)"/>
    <polygon points="334.2,64.7 343.5,64.7 357.3,62.3 348.6,62.3" fill="url(#lg10)"/>
    <polygon points="334.2,148.4 343.5,148.4 343.5,64.7 334.2,64.7" fill="url(#lg11)"/>
    <path d="M343.5,148.4 357.3,140.6" stroke="#06100F" stroke-width="0.8" opacity="0.5" fill="none"/>
    <path d="M343.5,64.7 357.3,62.3" stroke="#06100F" stroke-width="0.8" opacity="0.4" fill="none"/>
    <path d="M334.2,64.7 343.5,64.7" stroke="#BFEDE7" stroke-width="1.3" opacity="0.85" stroke-linecap="round" fill="none"/>
    <path d="M334.2,64.7 334.2,148.4" stroke="#BFEDE7" stroke-width="1.1" opacity="0.55" stroke-linecap="round" fill="none"/><defs><linearGradient id="lg13" x1="204.6" y1="58.5" x2="357.3" y2="56.5" gradientUnits="userSpaceOnUse"><stop offset="0" stop-color="#2A9D93" stop-opacity="1"/><stop offset="100" stop-color="#14857C" stop-opacity="1"/></linearGradient><linearGradient id="lg14" x1="0" y1="58.5" x2="0" y2="69.4" gradientUnits="userSpaceOnUse"><stop offset="0" stop-color="#0F766E" stop-opacity="1"/><stop offset="100" stop-color="#1B2626" stop-opacity="1"/></linearGradient><linearGradient id="lg15" x1="343.5" y1="0" x2="357.3" y2="0" gradientUnits="userSpaceOnUse"><stop offset="0" stop-color="#0E3B37" stop-opacity="1"/><stop offset="100" stop-color="#0C1212" stop-opacity="1"/></linearGradient></defs>
    <polygon points="343.5,69.4 357.3,66.6 357.3,56.5 343.5,58.5" fill="url(#lg15)"/>
    <polygon points="204.6,58.5 343.5,58.5 357.3,56.5 227.3,56.5" fill="url(#lg13)"/>
    <polygon points="204.6,69.4 343.5,69.4 343.5,58.5 204.6,58.5" fill="url(#lg14)"/>
    <path d="M343.5,69.4 357.3,66.6" stroke="#06100F" stroke-width="0.8" opacity="0.5" fill="none"/>
    <path d="M343.5,58.5 357.3,56.5" stroke="#06100F" stroke-width="0.8" opacity="0.4" fill="none"/>
    <path d="M204.6,58.5 343.5,58.5" stroke="#BFEDE7" stroke-width="1.3" opacity="0.85" stroke-linecap="round" fill="none"/>
    <path d="M204.6,58.5 204.6,69.4" stroke="#BFEDE7" stroke-width="1.1" opacity="0.55" stroke-linecap="round" fill="none"/><rect x="205.3" y="67.9" width="7" height="6" rx="1.5" fill="#1B2626" opacity="0.85"/><rect x="214.7" y="67.9" width="7" height="6" rx="1.5" fill="#1B2626" opacity="0.85"/><rect x="224.2" y="67.9" width="7" height="6" rx="1.5" fill="#1B2626" opacity="0.85"/><rect x="233.7" y="67.9" width="7" height="6" rx="1.5" fill="#1B2626" opacity="0.85"/><rect x="243.1" y="67.9" width="7" height="6" rx="1.5" fill="#1B2626" opacity="0.85"/><defs><linearGradient id="lg19" x1="257.9" y1="74" x2="264.3" y2="74" gradientUnits="userSpaceOnUse"><stop offset="0" stop-color="#8C9499" stop-opacity="1"/><stop offset="32" stop-color="#C9CED2" stop-opacity="1"/><stop offset="55" stop-color="#C9CED2" stop-opacity="1"/><stop offset="100" stop-color="#A6ADB3" stop-opacity="1"/></linearGradient></defs>
    <circle cx="261.1" cy="74" r="3.2" fill="url(#lg19)"/>
    <polygon points="257.9,74 257.9,146.9 264.3,146.9 264.3,74" fill="url(#lg19)"/>
    <circle cx="261.1" cy="146.9" r="3.2" fill="url(#lg19)"/><defs><linearGradient id="lg16" x1="248.5" y1="67.1" x2="276.9" y2="65" gradientUnits="userSpaceOnUse"><stop offset="0" stop-color="#C9CED2" stop-opacity="1"/><stop offset="100" stop-color="#A6ADB3" stop-opacity="1"/></linearGradient><linearGradient id="lg17" x1="0" y1="67.1" x2="0" y2="75.1" gradientUnits="userSpaceOnUse"><stop offset="0" stop-color="#A6ADB3" stop-opacity="1"/><stop offset="100" stop-color="#1B2626" stop-opacity="1"/></linearGradient><linearGradient id="lg18" x1="261.2" y1="0" x2="276.9" y2="0" gradientUnits="userSpaceOnUse"><stop offset="0" stop-color="#0E3B37" stop-opacity="1"/><stop offset="100" stop-color="#0C1212" stop-opacity="1"/></linearGradient></defs>
    <polygon points="261.2,75.1 276.9,72.5 276.9,65 261.2,67.1" fill="url(#lg18)"/>
    <polygon points="248.5,67.1 261.2,67.1 276.9,65 264.9,65" fill="url(#lg16)"/>
    <polygon points="248.5,75.1 261.2,75.1 261.2,67.1 248.5,67.1" fill="url(#lg17)"/>
    <path d="M261.2,75.1 276.9,72.5" stroke="#06100F" stroke-width="0.8" opacity="0.5" fill="none"/>
    <path d="M261.2,67.1 276.9,65" stroke="#06100F" stroke-width="0.8" opacity="0.4" fill="none"/>
    <path d="M248.5,67.1 261.2,67.1" stroke="#BFEDE7" stroke-width="1.3" opacity="0.85" stroke-linecap="round" fill="none"/>
    <path d="M248.5,67.1 248.5,75.1" stroke="#BFEDE7" stroke-width="1.1" opacity="0.55" stroke-linecap="round" fill="none"/><defs><linearGradient id="lg20" x1="252.7" y1="146.9" x2="269.5" y2="146.9" gradientUnits="userSpaceOnUse"><stop offset="0" stop-color="#8C9499" stop-opacity="1"/><stop offset="50" stop-color="#C9CED2" stop-opacity="1"/><stop offset="100" stop-color="#A6ADB3" stop-opacity="1"/></linearGradient></defs>
    <rect x="251.6" y="132.2" width="18.9" height="18.9" rx="3.2" fill="url(#lg20)"/>
    <circle cx="261.1" cy="144.8" r="6.8" fill="none" stroke="#2A9D93" stroke-width="1.5" opacity="0.8"/>
    <path d="M255.8 150 L261.1 160.5 L266.3 150 Z" fill="#0C1212"/><defs><linearGradient id="lg21" x1="328.2" y1="143.8" x2="405.5" y2="122.8" gradientUnits="userSpaceOnUse"><stop offset="0" stop-color="#2A9D93" stop-opacity="1"/><stop offset="100" stop-color="#14857C" stop-opacity="1"/></linearGradient><linearGradient id="lg22" x1="0" y1="143.8" x2="0" y2="235" gradientUnits="userSpaceOnUse"><stop offset="0" stop-color="#0F766E" stop-opacity="1"/><stop offset="100" stop-color="#1B2626" stop-opacity="1"/></linearGradient><linearGradient id="lg23" x1="371.9" y1="0" x2="405.5" y2="0" gradientUnits="userSpaceOnUse"><stop offset="0" stop-color="#0E3B37" stop-opacity="1"/><stop offset="100" stop-color="#0C1212" stop-opacity="1"/></linearGradient></defs>
    <polygon points="371.9,235 405.5,197.7 405.5,122.8 371.9,143.8" fill="url(#lg23)"/>
    <polygon points="328.2,143.8 371.9,143.8 405.5,122.8 369.6,122.8" fill="url(#lg21)"/>
    <polygon points="328.2,235 371.9,235 371.9,143.8 328.2,143.8" fill="url(#lg22)"/>
    <path d="M371.9,235 405.5,197.7" stroke="#06100F" stroke-width="0.8" opacity="0.5" fill="none"/>
    <path d="M371.9,143.8 405.5,122.8" stroke="#06100F" stroke-width="0.8" opacity="0.4" fill="none"/>
    <path d="M328.2,143.8 371.9,143.8" stroke="#BFEDE7" stroke-width="1.3" opacity="0.85" stroke-linecap="round" fill="none"/>
    <path d="M328.2,143.8 328.2,235" stroke="#BFEDE7" stroke-width="1.1" opacity="0.55" stroke-linecap="round" fill="none"/>
    <rect x="336.5" y="186.5" width="28.5" height="23" fill="#0A1E1C"/>
    <polyline points="336.5,201.5 340.1,196.1 343.7,198 347.2,203.6 350.8,204.2 354.4,198.2 357.9,193.8 361.5,196.8 365.1,202.2" fill="none" stroke="#2A9D93" stroke-width="1" opacity="0.85"/>
    <circle cx="361.6" cy="190.6" r="1.6" fill="#FFB067" opacity="0.9"/>
    <rect x="327" y="224.9" width="23.9" height="8.6" rx="1.4" fill="#0B1414" opacity="0.88"/>
    <rect x="327" y="224.9" width="23.9" height="8.6" rx="1.4" fill="none" stroke="#3A4A4A" stroke-width="0.6"/>
    <text x="339" y="230.8" text-anchor="middle" font-family="Arial, sans-serif" font-size="4.3" font-weight="700" fill="#8FE0D6" letter-spacing="0.5">RA-F1530</text></g></g>
  <text x="24" y="1778" font-family="Arial, sans-serif" font-size="36" font-weight="600" fill="#0F1A1A" opacity="0.4">RA-F1530 Fiber Laser Cutting Machine — front view</text>
</svg>