<svg xmlns="http://www.w3.org/2000/svg" width="1200" height="900" viewBox="0 0 1200 900">
  
  
  <g transform="translate(220 260) scale(1.7)"><svg x="0" y="0" width="480" height="300" viewBox="91 30 220 172" preserveAspectRatio="xMidYMid slice"><g fill="none" stroke="#0F1A1A" stroke-width="1.75" stroke-linecap="round" stroke-linejoin="round" opacity="1">
    <rect x="70" y="172" width="262" height="52" rx="3"/>
    <path d="M84 200.6 L318 200.6" opacity="0.5"/>
    <rect x="153.84" y="156" width="94.32" height="14" rx="2" stroke-dasharray="4 4"/>
    <path d="M62 234 L340 234"/>
    <path d="M101.44 234 L101.44 250"/><path d="M201 234 L201 250"/><path d="M300.56 234 L300.56 250"/>
    <path d="M90.96000000000001 234 L90.96000000000001 60"/>
    <path d="M311.04 234 L311.04 60"/>
    <path d="M84.96000000000001 60 L317.04 60"/>
    <rect x="189" y="58" width="24" height="16" rx="3"/>
    <path d="M201 74 L201 178" />
    <rect x="358" y="142" width="46" height="94" rx="4"/>
    <rect x="366" y="154" width="30" height="24" rx="2"/>
    <path d="M366 198 L396 198"/>
    <path d="M366 208 L388 208"/>
  </g></svg></g>
  <text x="24" y="878" font-family="Arial, sans-serif" font-size="18" font-weight="600" fill="#0F1A1A" opacity="0.4">RA-F12K Heavy Duty Fiber Laser Cutting Machine — detail view</text>
</svg>