<svg xmlns="http://www.w3.org/2000/svg" width="1200" height="900" viewBox="0 0 1200 900">
  <rect width="1200" height="900" fill="#E8EEF5"/>
  <g transform="translate(160 250) scale(2.1)"><svg x="0" y="0" width="440" height="280" viewBox="130 10 240 230" preserveAspectRatio="xMidYMid slice"><g><rect x="40" y="220" width="360" height="16" rx="4" fill="#111214"/><rect x="250" y="180" width="90" height="34" rx="3" fill="#FFFFFF" stroke="#111214" stroke-width="2"/><rect x="70" y="180" width="140" height="40" rx="4" fill="#1F4E79"/><g transform="rotate(-18 140 180)"><rect x="132" y="120" width="16" height="62" rx="6" fill="#1F4E79"/></g><circle cx="140" cy="180" r="16" fill="#111214"/><circle cx="150" cy="122" r="12" fill="#111214"/><g transform="rotate(24 150 122)"><rect x="146" y="70" width="14" height="56" rx="6" fill="#1F4E79"/></g><circle cx="205" cy="80" r="10" fill="#111214"/><g transform="rotate(12 205 80)"><rect x="203" y="80" width="70" height="10" rx="4" fill="#111214"/></g></g></svg></g>
  <text x="24" y="878" font-family="Arial, sans-serif" font-size="20" font-weight="600" fill="#111214" opacity="0.5">RA-RW6 Robotic MIG Welding Cell — detail view</text>
</svg>